<?xml version="1.0" standalone="no"?><!DOCTYPE svg PUBLIC "-//W3C//DTD SVG 1.1//EN" "http://www.w3.org/Graphics/SVG/1.1/DTD/svg11.dtd"><svg t="1494057762941" class="icon" style="" viewBox="0 0 1024 1024" version="1.1" xmlns="http://www.w3.org/2000/svg" p-id="5495" xmlns:xlink="http://www.w3.org/1999/xlink" width="200" height="200"><defs><style type="text/css"></style></defs><path d="M729.7024 393.03168c0 27.72992-22.48704 50.25792-50.23744 50.25792-27.72992 0-50.23744-22.528-50.23744-50.25792s22.528-50.23744 50.23744-50.23744C707.21536 342.79424 729.7024 365.30176 729.7024 393.03168zM420.57728 342.79424c-27.72992 0-50.23744 22.50752-50.23744 50.23744s22.528 50.25792 50.23744 50.25792c27.7504 0 50.23744-22.528 50.23744-50.25792S448.34816 342.79424 420.57728 342.79424zM739.26656 581.55008c9.60512-14.00832 6.08256-33.11616-7.8848-42.72128-14.00832-9.64608-33.11616-6.08256-42.72128 7.8848-31.51872 45.71136-83.31264 73.03168-138.6496 73.03168s-107.15136-27.32032-138.6496-73.03168c-9.60512-13.98784-28.71296-17.5104-42.72128-7.90528-13.96736 9.6256-17.5104 28.73344-7.8848 42.72128 42.92608 62.40256 113.68448 99.65568 189.2352 99.65568C625.54112 681.20576 696.29952 643.93216 739.26656 581.55008zM898.17088 713.27744l0-402.5344c0-80.9984-65.92512-146.88256-146.92352-146.88256l-402.51392 0c-80.9984 0-146.88256 65.88416-146.88256 146.88256l0 402.5344c0 80.9984 65.88416 146.88256 146.88256 146.88256l402.51392 0C832.26624 860.16 898.17088 794.27584 898.17088 713.27744zM751.26784 245.76c35.84 0 65.00352 29.14304 65.00352 64.96256l0 402.5344c0 35.81952-29.16352 64.96256-65.00352 64.96256l-402.51392 0c-35.84 0-64.96256-29.14304-64.96256-64.96256l0-402.5344c0-35.81952 29.12256-64.96256 64.96256-64.96256L751.26784 245.76z" p-id="5496"></path></svg>