<?xml version="1.0" standalone="no"?><!DOCTYPE svg PUBLIC "-//W3C//DTD SVG 1.1//EN" "http://www.w3.org/Graphics/SVG/1.1/DTD/svg11.dtd"><svg t="1494057368918" class="icon" style="" viewBox="0 0 1024 1024" version="1.1" xmlns="http://www.w3.org/2000/svg" p-id="2323" xmlns:xlink="http://www.w3.org/1999/xlink" width="200" height="200"><defs><style type="text/css"></style></defs><path d="M264.825504 486.188124l99.299587 0 0-99.299587L264.825504 386.888538 264.825504 486.188124zM463.426725 486.183008l99.298564 0L562.725288 386.884444l-99.298564 0L463.426725 486.183008zM860.626096 113.813139 165.525917 113.813139c-54.842049 0-99.30061 44.457538-99.30061 99.299587l0 446.850188c0 0.095167 0.00307 0.189312 0.004093 0.284479l-0.00614 0 0 247.965511 268.582061-148.950404 525.820774 0c54.842049 0 99.299587-44.458561 99.299587-99.30061L959.925682 213.113749C959.925682 158.2717 915.467121 113.813139 860.626096 113.813139zM885.450481 635.138528c0 27.420513-22.229281 49.649793-49.649793 49.649793L319.752488 684.788322 140.698462 784.087908 140.698462 536.122397l0.002047 0L140.700509 237.938134c0-27.420513 22.229281-49.649793 49.649793-49.649793l645.450385 0c27.420513 0 49.649793 22.229281 49.649793 49.649793L885.450481 635.138528zM662.025898 486.188124l99.30061 0 0-99.299587-99.30061 0L662.025898 486.188124z" p-id="2324"></path></svg>