<?xml version="1.0" standalone="no"?><!DOCTYPE svg PUBLIC "-//W3C//DTD SVG 1.1//EN" "http://www.w3.org/Graphics/SVG/1.1/DTD/svg11.dtd"><svg t="1494156009722" class="icon" style="" viewBox="0 0 1024 1024" version="1.1" xmlns="http://www.w3.org/2000/svg" p-id="9948" xmlns:xlink="http://www.w3.org/1999/xlink" width="200" height="200"><defs><style type="text/css"></style></defs><path d="M853.622588 943.388031 622.021789 943.388031c-49.497321 0-89.766466-40.269146-89.766466-89.765443L532.255323 622.021789c0-49.496298 40.269146-89.765443 89.766466-89.765443l231.599775 0c49.496298 0 89.765443 40.269146 89.765443 89.765443l0 231.600799C943.387008 903.118885 903.118885 943.388031 853.622588 943.388031zM634.586966 841.057411l206.470445 0L841.057411 634.586966 634.586966 634.586966 634.586966 841.057411zM401.978211 943.388031 170.377412 943.388031c-49.497321 0-89.765443-40.269146-89.765443-89.765443L80.611969 622.021789c0-49.496298 40.269146-89.765443 89.765443-89.765443l231.600799 0c49.497321 0 89.765443 40.269146 89.765443 89.765443l0 231.600799C491.74263 903.118885 451.474508 943.388031 401.978211 943.388031zM182.942589 841.057411l206.470445 0L389.413034 634.586966 182.942589 634.586966 182.942589 841.057411zM853.622588 491.743654 622.021789 491.743654c-49.497321 0-89.766466-40.269146-89.766466-89.765443L532.255323 170.377412c0-49.497321 40.269146-89.765443 89.766466-89.765443l231.599775 0c49.496298 0 89.765443 40.269146 89.765443 89.765443L943.387008 401.978211C943.387008 451.474508 903.118885 491.743654 853.622588 491.743654zM634.586966 389.413034l206.470445 0L841.057411 182.942589 634.586966 182.942589 634.586966 389.413034zM401.978211 491.743654 170.377412 491.743654c-49.497321 0-89.765443-40.269146-89.765443-89.765443L80.611969 170.377412c0-49.497321 40.269146-89.765443 89.765443-89.765443l231.600799 0c49.497321 0 89.765443 40.269146 89.765443 89.765443L491.743654 401.978211C491.74263 451.474508 451.474508 491.743654 401.978211 491.743654zM182.942589 389.413034l206.470445 0L389.413034 182.942589 182.942589 182.942589 182.942589 389.413034z" p-id="9949" fill="#ffffff"></path></svg>