<?xml version="1.0" standalone="no"?><!DOCTYPE svg PUBLIC "-//W3C//DTD SVG 1.1//EN" "http://www.w3.org/Graphics/SVG/1.1/DTD/svg11.dtd"><svg t="1494160708601" class="icon" style="" viewBox="0 0 1024 1024" version="1.1" xmlns="http://www.w3.org/2000/svg" p-id="3075" xmlns:xlink="http://www.w3.org/1999/xlink" width="200" height="200"><defs><style type="text/css"></style></defs><path d="M921.6 0 102.4 0C46.08 0 0 46.08 0 102.4l0 921.6 204.8-204.8 716.8 0c56.32 0 102.4-46.08 102.4-102.4L1024 102.4C1024 46.08 977.92 0 921.6 0zM358.4 460.8l-102.4 0 0-102.4 102.4 0L358.4 460.8zM563.2 460.8l-102.4 0 0-102.4 102.4 0L563.2 460.8zM768 460.8l-102.4 0 0-102.4 102.4 0L768 460.8z" p-id="3076" fill="#ff0000"></path></svg>