<?xml version="1.0" standalone="no"?><!DOCTYPE svg PUBLIC "-//W3C//DTD SVG 1.1//EN" "http://www.w3.org/Graphics/SVG/1.1/DTD/svg11.dtd"><svg t="1494057425581" class="icon" style="" viewBox="0 0 1024 1024" version="1.1" xmlns="http://www.w3.org/2000/svg" p-id="5037" xmlns:xlink="http://www.w3.org/1999/xlink" width="200" height="200"><defs><style type="text/css"></style></defs><path d="M971.3664 249.856c0-1.9968-0.256-3.9424-0.7168-5.8368C961.6384 205.8752 926.9248 179.2 886.272 179.2L137.8304 179.2C90.0608 179.2 51.2 216.6272 51.2 262.656l0 498.688c0 45.9776 38.8608 83.456 86.6304 83.456L886.272 844.8c47.7184 0 86.528-37.4272 86.528-83.5072L971.3664 249.856zM921.6 756.5312l-228.8128-228.8128 227.584-204.288L921.6 756.5312zM137.8304 230.4 886.272 230.4c15.6672 0 29.4912 9.5744 33.8944 22.9888l0 1.4336-366.1824 328.7552c-16.7936 14.1824-48.5888 17.7152-69.12 0.1024L104.1408 254.8224C108.0832 240.896 121.344 230.4 137.8304 230.4zM102.4 755.9168 102.4 320.9216l233.3696 201.6256L102.4 755.9168zM137.8304 793.6c-0.2048 0-0.4096-0.1024-0.6144-0.1024l237.3632-237.3632 76.8512 66.4064c18.944 16.1792 43.3152 24.3712 67.6864 24.3712 24.5248 0 49.152-8.2432 68.5056-24.7296l66.9696-60.1088L886.272 793.6 137.8304 793.6z" p-id="5038"></path></svg>