<?xml version="1.0" standalone="no"?><!DOCTYPE svg PUBLIC "-//W3C//DTD SVG 1.1//EN" "http://www.w3.org/Graphics/SVG/1.1/DTD/svg11.dtd"><svg t="1494057613715" class="icon" style="" viewBox="0 0 1024 1024" version="1.1" xmlns="http://www.w3.org/2000/svg" p-id="8152" xmlns:xlink="http://www.w3.org/1999/xlink" width="200" height="200"><defs><style type="text/css"></style></defs><path d="M721.92 629.76c-30.72 30.72-66.56 46.08-107.52 46.08s-76.8-15.36-107.52-46.08c-20.48-20.48-51.2-20.48-71.68 0s-20.48 51.2 0 71.68c46.08 46.08 112.64 76.8 179.2 76.8 66.56 0 133.12-25.6 179.2-76.8 20.48-20.48 20.48-51.2 0-71.68s-51.2-20.48-71.68 0z" p-id="8153"></path><path d="M460.8 409.6m-51.2 0a51.2 51.2 0 1 0 102.4 0 51.2 51.2 0 1 0-102.4 0Z" p-id="8154"></path><path d="M768 409.6m-51.2 0a51.2 51.2 0 1 0 102.4 0 51.2 51.2 0 1 0-102.4 0Z" p-id="8155"></path><path d="M614.4 0c-40.96 0-81.92 5.12-117.76 15.36C460.8 5.12 424.96 0 384 0 174.08 0 0 174.08 0 384v256C0 849.92 174.08 1024 384 1024c40.96 0 76.8-5.12 112.64-15.36 35.84 10.24 76.8 15.36 117.76 15.36 225.28 0 409.6-184.32 409.6-409.6V409.6c0-225.28-184.32-409.6-409.6-409.6zM337.92 916.48C204.8 896 102.4 778.24 102.4 640v-256c0-138.24 102.4-256 235.52-276.48C256 179.2 204.8 286.72 204.8 409.6v204.8c0 122.88 51.2 230.4 133.12 302.08zM921.6 614.4c0 168.96-138.24 307.2-307.2 307.2s-307.2-138.24-307.2-307.2V409.6c0-168.96 138.24-307.2 307.2-307.2s307.2 138.24 307.2 307.2v204.8z" p-id="8156"></path></svg>