<?xml version="1.0" standalone="no"?><!DOCTYPE svg PUBLIC "-//W3C//DTD SVG 1.1//EN" "http://www.w3.org/Graphics/SVG/1.1/DTD/svg11.dtd"><svg t="1494155914084" class="icon" style="" viewBox="0 0 1024 1024" version="1.1" xmlns="http://www.w3.org/2000/svg" p-id="7659" xmlns:xlink="http://www.w3.org/1999/xlink" width="200" height="200"><defs><style type="text/css"></style></defs><path d="M67.595379 412.431483c-1.902322 1.903346-2.305504 4.497422-2.305504 4.497422l0 538.226262c0 0 0 2.506072 1.903346 4.643754 1.901299 2.161218 4.467746 1.787712 4.467746 1.787712l689.31405 0c0 0 11.070104-2.021026 12.715577-2.853995 99.207291-49.496199 102.464468-140.586641 103.185898-156.855131 0.056282-1.672079 1.329272-3.605101 1.933022-4.151545 85.429524-77.763953 44.113619-169.604477 32.868529-189.304105-1.414206-2.479466-0.027629-5.566775 0.979302-6.546077 105.121989-103.662757 1.328249-197.754551-27.243426-212.807355-19.002758-12.548779-38.203014-11.568453-38.203014-11.568453L688.805468 377.499972c0 0-6.886837-2.047632-6.515378-8.537427C703.858272-0.959859 519.621569 59.151073 490.27116 77.350538c-2.967582 1.817388-4.55575 6.864324-4.55575 8.768693 0.489139 291.783923-192.62575 323.944326-192.62575 323.944326l-221.370364 0.056282C71.719295 410.120862 69.700316 410.323476 67.595379 412.431483M296.982308 473.723308c12.743207-3.461838 54.290379-17.018571 95.463021-39.456562 74.529288-40.611872 155.691634-167.26725 156.154167-297.842907 0.027629-2.79669 2.44979-8.248855 6.543007-6.950282 17.271327 5.392813 62.303873 30.977463 62.303873 150.67949l0 97.346924c0 0 0 64.898973 64.87339 64.898973l179.767934 0c0 0 5.535052 0.752129 7.784275 2.193964 17.845401 11.593013 78.337003 70.752272-21.017644 151.890059-1.15224 0.95065-1.18294 5.219874-0.144286 6.402814 31.138122 35.969141 45.437774 131.672639-27.967926 164.898301-1.528816 0.6938-3.834321 5.945397-3.803622 7.848743 1.350761 82.780189-15.772187 100.9817-69.545797 121.171491L298.768997 896.804317c0 0-3.689011-0.173962-5.072519-1.788736-1.385554-1.612727-1.413183-4.701059-1.413183-4.701059L292.283295 479.290083C292.283295 479.290083 293.378231 474.703634 296.982308 473.723308M132.266155 477.182076c2.018979-2.219547 4.325507-2.219547 4.325507-2.219547l84.332542 0c0 0 2.767014-0.202614 4.671383 1.816365 1.872647 2.047632 1.815342 4.67343 1.815342 4.67343l0 408.860151c0 0 0 2.623752-1.614774 4.672407-1.614774 2.018979-4.871951 1.816365-4.871951 1.816365l-84.332542 0c0 0-2.56747 0.144286-4.527098-1.700732-1.960651-1.820458-1.960651-4.789063-1.960651-4.789063L130.103913 481.453348C130.103913 481.453348 130.247176 479.433345 132.266155 477.182076" p-id="7660" fill="#ffffff"></path></svg>