<?xml version="1.0" standalone="no"?><!DOCTYPE svg PUBLIC "-//W3C//DTD SVG 1.1//EN" "http://www.w3.org/Graphics/SVG/1.1/DTD/svg11.dtd"><svg t="1494057500790" class="icon" style="" viewBox="0 0 1025 1024" version="1.1" xmlns="http://www.w3.org/2000/svg" p-id="6248" xmlns:xlink="http://www.w3.org/1999/xlink" width="200.1953125" height="200"><defs><style type="text/css"></style></defs><path d="M1024.073666 471.828086c0.767616-25.587206-14.584708-37.101449-27.634183-41.963018-32.495752-12.537731-64.991504-25.331334-97.487256-38.636682l-5.117441-2.046977c-3.326337-1.27936-8.955522-3.582209-9.467266-3.582209-3.326337-4.861569-6.14093-11.770115-8.955522-19.190405-2.302849-5.885057-4.349825-11.514243-7.164418-17.143428-0.511744-1.023488-1.023488-2.302849 1.27936-7.932034l8.443778-19.702149c10.490755-24.051974 21.237381-48.871564 30.448776-74.202899 0.511744-1.27936 1.27936-2.302849 1.791104-3.582209 4.349825-8.187906 17.3993-33.51924-6.14093-55.524238-10.234883-9.723138-20.469765-19.702149-30.448776-29.425287-11.514243-11.258371-23.028486-22.516742-35.054473-33.775112-6.908546-6.652674-17.655172-10.490755-27.890055-10.490755l-7.932034 0.511744-4.349825 1.791104c-35.054473 13.817091-69.853073 28.401799-104.13993 43.498251-5.373313 2.302849-11.258371 4.861569-17.143428 3.838081-8.955522-3.326337-21.237381-7.932034-34.286857-14.328836-1.023488-1.023488-3.070465-5.629185-4.605697-8.955522-15.608196-35.566217-31.472264-83.414293-47.848076-118.724638-5.629185-12.025987-20.213893-21.493253-34.030985-21.749125-31.216392-0.511744-62.176912-0.767616-93.393303 0.255872-13.817091 0.511744-29.425287 11.002499-35.310345 24.307846-8.187906 18.934533-39.148426 104.907546-46.824588 122.562719-0.511744 0.767616-1.791104 2.302849-2.558721 2.558721-10.234883 5.373313-22.004998 9.97901-34.542729 14.072964-1.27936 0.511744-3.070465 0.767616-4.093953 1.023488-22.516742-8.443778-45.033483-17.3993-67.294353-26.354823-14.328836-5.629185-28.657671-11.514243-43.242379-17.143428-19.446277-7.676162-37.613193-3.838081-51.174413 9.97901-16.375812 16.631684-33.007496 32.751624-49.63918 48.871564l-10.234883 9.97901c-13.561219 13.049475-17.143428 30.192904-9.723138 46.824588l3.326337 7.676162c14.072964 32.23988 28.401799 64.735632 41.707146 97.231384 1.535232 3.582209 1.791104 6.908546 1.791104 7.676162-3.326337 10.746627-8.187906 21.493253-13.561219 33.007496l-1.791104 3.838081c-33.007496 13.561219-66.014993 26.866567-99.022489 40.171914-31.984008 12.793603-40.427786 25.075462-40.427786 59.362319l0.255872 21.749125c0.255872 15.864068 0.511744 31.728136-0.511744 47.592204-0.767616 15.352324 4.093953 35.822089 32.23988 46.568716l23.284358 8.955522c24.307846 9.467266 48.615692 18.934533 73.17941 27.634183 12.281859 4.349825 14.328836 8.955522 15.608196 14.584708 1.27936 5.629185 3.838081 9.723138 4.349825 9.723138l2.046977 4.605697c4.861569 11.770115 6.14093 16.11994 4.605697 20.469765l-5.885057 14.328836c-12.793603 30.704648-25.587206 61.153423-37.613193 92.113943-4.861569 12.281859-3.326337 32.23988 7.932034 44.009995 23.54023 24.81959 47.592204 48.103948 66.014993 65.503248 7.164418 6.908546 18.166917 11.002499 29.169415 11.002499l5.117441-0.255872c8.69965-1.023488 16.11994-4.349825 21.749125-7.164418l34.798601-15.352324c22.26087-9.723138 44.777611-19.702149 64.735632-28.657671 9.211394 2.814593 18.166917 6.908546 28.913543 11.770115 11.514243 5.117441 13.561219 6.652674 15.096452 11.002499 13.305347 34.542729 28.657671 81.111444 43.498251 113.095452 5.885057 12.793603 22.004998 23.284358 36.589705 23.54023 15.864068 0.511744 31.728136 0.767616 47.592204 0.767616 16.11994 0 32.495752-0.255872 48.615692-0.767616 14.328836-0.511744 29.937031-10.234883 36.589705-22.516742 7.932034-15.096452 22.26087-50.662669 22.26087-50.662669 0 0 19.190405-61.153423 22.516742-69.597201 9.467266-5.373313 32.751624-14.072964 42.730635-15.608196l23.796102 9.723138c16.631684 6.908546 33.263368 13.817091 50.150925 20.469765 10.234883 4.093953 20.725637 7.676162 31.472264 11.514243l24.307846 8.69965 12.537731-5.885057c4.605697-1.791104 11.002499-4.349825 16.887556-9.97901 7.164418-6.908546 14.072964-13.817091 20.981509-20.981509 11.514243-11.770115 22.516742-23.028486 34.286857-33.007496 10.746627-8.955522 26.610695-28.913543 14.328836-59.874063-5.629185-14.328836-12.281859-28.401799-18.678661-42.474763-4.349825-9.467266-8.69965-19.190405-13.049475-28.913543-1.791104-4.349825-3.838081-8.443778-5.885057-12.537731-9.211394-18.678661-10.490755-23.796102-4.605697-32.495752 4.349825-6.396802 6.908546-12.537731 9.211394-18.166917 1.27936-3.326337 3.582209-8.955522 6.396802-10.234883 5.885057-1.27936 11.770115-2.814593 17.3993-5.117441l20.213893-8.187906c20.213893-8.187906 40.171914-16.375812 59.618191-25.587206 3.838081-1.791104 6.908546-3.070465 9.467266-4.093953 26.866567-11.002499 29.425287-24.563718 28.913543-53.221389C1023.561921 519.932034 1023.561921 495.88006 1024.073666 471.828086zM964.455475 556.777611c-18.678661 8.955522-37.869065 16.631684-57.05947 24.563718l-20.725637 8.443778c-3.070465 1.27936-6.396802 2.046977-10.234883 2.814593-26.610695 6.14093-35.054473 26.866567-40.171914 39.148426-1.535232 3.582209-3.070465 7.164418-4.349825 9.211394-23.028486 33.263368-8.69965 62.688656 1.023488 82.134933 1.791104 3.326337 3.326337 6.908546 4.861569 10.234883 4.349825 9.97901 8.955522 19.958021 13.561219 30.192904 6.14093 13.305347 12.281859 26.610695 17.655172 40.171914 1.023488 2.558721 1.023488 3.582209-0.511744 4.349825-13.305347 11.514243-25.587206 23.796102-37.357321 35.822089-5.885057 6.14093-11.770115 12.025987-18.678661 17.911044l-4.349825-1.535232c-9.97901-3.582209-19.958021-6.908546-29.425287-10.746627-16.631684-6.652674-33.007496-13.561219-49.383308-20.213893l-27.890055-11.514243-7.676162-2.302849-4.861569 0c-13.817091 0-78.296852 16.631684-88.531734 41.451274-4.349825 10.490755-36.845577 105.41929-42.986507 117.445277-28.401799 0.767616-56.803598 0.767616-85.205397 0-14.328836-30.96052-27.890055-73.947026-40.171914-105.41929-9.211394-23.796102-27.634183-32.23988-42.730635-38.892554-10.746627-4.861569-21.493253-9.467266-32.495752-13.049475-9.723138-3.070465-22.004998-2.558721-31.472264 1.27936-22.772614 9.723138-45.289355 19.446277-67.806097 29.425287l-35.822089 15.608196c-1.535232 0.767616-3.582209 1.791104-5.117441 2.302849-16.375812-15.608196-36.845577-35.566217-57.05947-56.547726 11.514243-29.169415 23.54023-58.082959 35.822089-86.996502l5.885057-14.328836c9.97901-23.796102 1.535232-43.754123-4.605697-58.338831l-4.605697-9.723138c-6.14093-22.26087-21.749125-38.124938-46.568716-46.568716-24.051974-8.443778-47.848076-17.655172-71.388306-26.866567l-23.54023-9.211394c-0.255872 0-0.511744-0.255872-0.511744-0.255872 0.767616-16.11994 0.511744-32.495752 0.255872-48.615692l-0.255872-20.981509c0-4.861569 0-7.932034 0.255872-9.723138 1.535232-0.767616 4.349825-2.046977 9.211394-4.093953 34.542729-13.817091 69.085457-27.890055 103.628186-41.963018 5.117441-2.046977 14.584708-7.164418 19.190405-17.655172l4.349825-9.467266c5.629185-12.281859 11.514243-25.331334 15.864068-39.148426 5.117441-16.887556-0.511744-34.030985-3.326337-40.683658-13.561219-33.007496-27.890055-65.75912-42.218891-98.510745l-1.023488-2.558721 6.908546-6.652674c16.631684-15.864068 33.007496-31.728136 49.383308-48.35982 14.072964 5.629185 28.401799 11.258371 42.474763 16.887556 22.772614 8.955522 45.289355 18.166917 68.317841 26.866567 10.490755 4.093953 24.051974 3.838081 36.589705 0 15.352324-4.861569 29.425287-10.746627 42.218891-17.3993 10.746627-5.629185 20.213893-15.864068 25.075462-26.610695 7.932034-17.911044 37.357321-100.813593 44.777611-117.701149 26.098951-0.767616 52.197901-0.511744 78.296852-0.255872 15.096452 32.751624 29.937031 78.04098 44.521739 111.56022 5.117441 12.025987 12.281859 27.378311 38.38081 38.892554 5.885057 2.558721 14.328836 6.396802 17.143428 7.932034 20.981509 13.305347 48.871564 4.605697 65.247376-2.558721 31.472264-13.817091 63.456272-27.122439 95.44028-39.916042 9.97901 9.467266 19.702149 18.934533 29.681159 28.657671 9.211394 8.955522 18.166917 17.911044 27.634183 26.866567 0 0 0 0.255872-0.255872 0.255872-1.791104 3.326337-3.326337 6.652674-4.349825 9.723138-8.69965 24.051974-19.190405 48.103948-29.169415 71.388306l-8.443778 19.702149c-2.814593 6.396802-11.258371 26.098951-0.511744 48.615692 2.046977 4.349825 3.838081 8.69965 5.373313 13.305347 3.582209 9.467266 7.676162 20.213893 14.584708 29.937031 8.443778 12.025987 22.26087 17.3993 31.984008 21.237381l4.093953 1.535232c31.216392 12.793603 62.432784 25.075462 94.16092 37.357321-0.511744 23.54023-0.511744 47.08046 0 70.62069 0 2.814593 0.255872 5.373313 0.255872 7.42029C971.875765 553.451274 968.549428 554.986507 964.455475 556.777611z" p-id="6249"></path><path d="M512.329538 319.072464c-106.442779 0-192.927536 86.484758-192.927536 192.927536 0 106.442779 86.484758 192.927536 192.927536 192.927536 106.442779 0 192.927536-86.484758 192.927536-192.927536C705.257074 405.557221 618.772316 319.072464 512.329538 319.072464zM512.329538 655.544228c-79.064468 0-143.544228-64.47976-143.544228-143.544228s64.47976-143.544228 143.544228-143.544228 143.544228 64.47976 143.544228 143.544228S591.394005 655.544228 512.329538 655.544228z" p-id="6250"></path></svg>