<?xml version="1.0" standalone="no"?><!DOCTYPE svg PUBLIC "-//W3C//DTD SVG 1.1//EN" "http://www.w3.org/Graphics/SVG/1.1/DTD/svg11.dtd"><svg t="1494156155563" class="icon" style="" viewBox="0 0 1024 1024" version="1.1" xmlns="http://www.w3.org/2000/svg" p-id="534" xmlns:xlink="http://www.w3.org/1999/xlink" width="200" height="200"><defs><style type="text/css"></style></defs><path d="M960 109.254848 960 448 1024 448 1024 64 1005.254848 64 1005.254848 64 1024 64 1024 0 576 0 576 64 914.745152 64 464.470976 514.274176 509.725824 559.529024 960 109.254848ZM0 128 0 960 64 960 64 128 0 128ZM0 960 0 1024 960 1024 960 960 0 960ZM896 640 896 960 960 960 960 640 896 640ZM0 64 0 128 384 128 384 64 0 64Z" p-id="535" fill="#ffffff"></path></svg>