<?xml version="1.0" standalone="no"?><!DOCTYPE svg PUBLIC "-//W3C//DTD SVG 1.1//EN" "http://www.w3.org/Graphics/SVG/1.1/DTD/svg11.dtd"><svg t="1494057396079" class="icon" style="" viewBox="0 0 1025 1024" version="1.1" xmlns="http://www.w3.org/2000/svg" p-id="4368" xmlns:xlink="http://www.w3.org/1999/xlink" width="200.1953125" height="200"><defs><style type="text/css"></style></defs><path d="M795.875416 1023.601113c-14.094335 0-28.188671-3.523584-44.044798-12.332544L577.413216 916.131805c-33.474047-17.617919-96.898556-17.617919-130.372603 0l-174.417401 95.136764c-33.474047 19.379711-66.948093 15.856127-84.566013-5.285376-8.80896-10.570752-17.617919-29.950463-12.332544-63.42451l33.474047-209.65324c7.047168-40.521214-12.332544-98.660348-40.521214-128.610811l-142.705147-144.466938C-3.978121 428.11544-2.216329 401.688561 3.069046 387.594225c5.285376-14.094335 19.379711-36.997631 61.662718-44.044798l192.035321-29.950463c40.521214-5.285376 89.851389-42.283006 105.707516-79.280637l89.851389-188.511737C471.7057 5.285376 498.132579 0 512.226915 0c14.094335 0 40.521214 5.285376 58.139134 45.80659l89.851389 188.511737c17.617919 36.997631 66.948093 73.995261 105.707516 79.280637l192.035321 29.950463c44.044798 7.047168 58.139134 29.950463 61.662718 44.044798s7.047168 40.521214-22.903295 72.233469l-142.705147 144.466938c-28.188671 29.950463-47.568382 88.089597-40.521214 128.610811L848.729174 942.558684c5.285376 33.474047-3.523584 52.853758-12.332544 63.42451C825.825879 1018.315737 811.731543 1023.601113 795.875416 1023.601113zM512.226915 854.469087c33.474047 0 65.186301 7.047168 88.089597 21.141503l174.417401 95.136764c22.903295 12.332544 24.665087 5.285376 26.426879 5.285376 1.761792-3.523584 3.523584-10.570752 1.761792-24.665087l-33.474047-209.65324c-8.80896-54.61555 14.094335-130.372603 54.61555-169.132026l142.705147-144.466938c10.570752-10.570752 14.094335-19.379711 12.332544-24.665087-1.761792-3.523584-8.80896-8.80896-24.665087-12.332544L760.639577 361.167346c-56.377342-8.80896-118.040059-54.61555-142.705147-105.707516L528.083042 66.948093c-7.047168-15.856127-14.094335-19.379711-15.856127-19.379711-1.761792 0-8.80896 3.523584-15.856127 19.379711L408.281191 255.45983c-24.665087 51.091966-86.327805 96.898556-142.705147 105.707516L73.540724 391.117809c-14.094335 1.761792-22.903295 7.047168-24.665087 12.332544-1.761792 3.523584 1.761792 14.094335 12.332544 24.665087l142.705147 144.466938c38.759423 40.521214 63.42451 114.516476 54.61555 169.132026l-33.474047 209.65324c-1.761792 14.094335 0 21.141503 1.761792 24.665087 0 0 1.761792 7.047168 26.426879-5.285376l174.417401-95.136764C447.040613 861.516255 478.752868 854.469087 512.226915 854.469087z" p-id="4369"></path></svg>